# xmcd
#
# Track frame offsets:
#	150
#	17602
#	41438
#	63598
#	79847
#	104928
#	124337
#	144322
#
# Disc length: 2167 seconds
#
# Revision: 1
# Processed by: cddbd v1.5.2PL0 Copyright (c) Steve Scherf et al.
# Submitted via: EZCDAudioConverter 8.0.2.1
#
DISCID=6e087508
DTITLE=Thanh Lam - st. Lê Minh Sơn. Em and Đêm
DYEAR=2005
DGENRE=World Pop
TTITLE0=Ngày anh
TTITLE1=Em and Đêm
TTITLE2=Nhìn em để thấy
TTITLE3=Hát một ngày mới
TTITLE4=Người đàn bà
TTITLE5=Ngày em ra đời
TTITLE6=Tóc thổi Tây Hồ
TTITLE7=Sương giăng câu hát
EXTD=
EXTT0=
EXTT1=
EXTT2=
EXTT3=
EXTT4=
EXTT5=
EXTT6=
EXTT7=
PLAYORDER=
